# xmcd CD database file generated by Grip 2.5
# 
# Track frame offsets:
#       183
#       10038
#       28083
#       42143
#       54370
#       68543
#       77243
#       90878
#       104163
#       114963
#       123515
#       143603
#       153285
#       168883
# 
# Disc length: 2419 seconds
# 
# Revision: 3
# Processed by: cddbd v1.4b41PL1 Copyright (c) Steve Scherf et al.
# Submitted via: Grip 2.5
# 
DISCID=a009710e
DTITLE=Cop - 1993
DYEAR=1900
DGENRE=
TTITLE0=Tvuj stin
TTITLE1=Sramy
TTITLE2=Used to be
TTITLE3=Divnej sen
TTITLE4=Myslim na Colorado
TTITLE5=Going up the mountain
TTITLE6=Za zdi
TTITLE7=Dixie breakdown
TTITLE8=I´m satisfied with you
TTITLE9=Plac
TTITLE10=Svita
TTITLE11=Kladivo
TTITLE12=Cumberland v horach
TTITLE13=Kouli
EXTD=
EXTT0=
EXTT1=
EXTT2=
EXTT3=
EXTT4=
EXTT5=
EXTT6=
EXTT7=
EXTT8=
EXTT9=
EXTT10=
EXTT11=
EXTT12=
EXTT13=
PLAYORDER=
